<mxfile host="app.diagrams.net" modified="2024-01-09T10:30:20.038Z" agent="Mozilla/5.0 (Macintosh; Intel Mac OS X 10_15_7) AppleWebKit/537.36 (KHTML, like Gecko) Chrome/120.0.0.0 Safari/537.36" version="21.1.8" etag="D52yOEjYktpzDnrOhsFU" type="github">
  <diagram name="Page-1" id="eoBJK1-RsFcs7KWgZKT3">
    <mxGraphModel>
      <root>
        <mxCell id="0" />
        <mxCell id="1" parent="0" />
      </root>
    </mxGraphModel>
  </diagram>
</mxfile>
